<?xml version="1.0" encoding="UTF-8" standalone="no"?>
<!DOCTYPE svg PUBLIC "-//W3C//DTD SVG 1.1//EN"
 "http://www.w3.org/Graphics/SVG/1.1/DTD/svg11.dtd">
<!-- Generated by graphviz version 2.43.0 (0)
 -->
<!-- Title: G Pages: 1 -->
<svg width="1104pt" height="1650pt"
 viewBox="0.00 0.00 1104.00 1650.00" xmlns="http://www.w3.org/2000/svg" xmlns:xlink="http://www.w3.org/1999/xlink">
<g id="graph0" class="graph" transform="scale(1 1) rotate(0) translate(4 1646)">
<title>G</title>
<polygon fill="white" stroke="transparent" points="-4,4 -4,-1646 1100,-1646 1100,4 -4,4"/>
<g id="clust1" class="cluster">
<title>cluster_1516500233</title>
<polygon fill="#fff68f" stroke="#fff68f" points="108,-1468 108,-1634 452,-1634 452,-1468 108,-1468"/>
<text text-anchor="middle" x="280" y="-1497" font-family="Times,serif" font-size="10.00">Block ID: 0</text>
<text text-anchor="middle" x="280" y="-1486" font-family="Times,serif" font-size="10.00">Hits: 7</text>
<text text-anchor="middle" x="280" y="-1475" font-family="Times,serif" font-size="10.00">Branches: 1/2</text>
</g>
<g id="clust2" class="cluster">
<title>cluster_1472682156</title>
<polygon fill="lightcoral" stroke="lightcoral" points="151,-1274 151,-1439 287,-1439 287,-1274 151,-1274"/>
<text text-anchor="middle" x="219" y="-1292" font-family="Times,serif" font-size="10.00">Block ID: 1</text>
<text text-anchor="middle" x="219" y="-1281" font-family="Times,serif" font-size="10.00">Hits: 0</text>
</g>
<g id="clust3" class="cluster">
<title>cluster_1691185247</title>
<polygon fill="#fff68f" stroke="#fff68f" points="234,-1162 234,-1255 338,-1255 338,-1162 234,-1162"/>
<text text-anchor="middle" x="286" y="-1191" font-family="Times,serif" font-size="10.00">Block ID: 2</text>
<text text-anchor="middle" x="286" y="-1180" font-family="Times,serif" font-size="10.00">Hits: 7</text>
<text text-anchor="middle" x="286" y="-1169" font-family="Times,serif" font-size="10.00">Branches: 1/2</text>
</g>
<g id="clust4" class="cluster">
<title>cluster_1699679644</title>
<polygon fill="lightcoral" stroke="lightcoral" points="166,-968 166,-1133 292,-1133 292,-968 166,-968"/>
<text text-anchor="middle" x="229" y="-986" font-family="Times,serif" font-size="10.00">Block ID: 3</text>
<text text-anchor="middle" x="229" y="-975" font-family="Times,serif" font-size="10.00">Hits: 0</text>
</g>
<g id="clust5" class="cluster">
<title>cluster_2114684409</title>
<polygon fill="#fff68f" stroke="#fff68f" points="243,-856 243,-949 337,-949 337,-856 243,-856"/>
<text text-anchor="middle" x="290" y="-885" font-family="Times,serif" font-size="10.00">Block ID: 4</text>
<text text-anchor="middle" x="290" y="-874" font-family="Times,serif" font-size="10.00">Hits: 7</text>
<text text-anchor="middle" x="290" y="-863" font-family="Times,serif" font-size="10.00">Branches: 1/2</text>
</g>
<g id="clust6" class="cluster">
<title>cluster_154482552</title>
<polygon fill="lightcoral" stroke="lightcoral" points="159,-662 159,-827 285,-827 285,-662 159,-662"/>
<text text-anchor="middle" x="222" y="-680" font-family="Times,serif" font-size="10.00">Block ID: 5</text>
<text text-anchor="middle" x="222" y="-669" font-family="Times,serif" font-size="10.00">Hits: 0</text>
</g>
<g id="clust7" class="cluster">
<title>cluster_24119573</title>
<polygon fill="#7ccd7c" stroke="#7ccd7c" points="240,-550 240,-643 326,-643 326,-550 240,-550"/>
<text text-anchor="middle" x="283" y="-579" font-family="Times,serif" font-size="10.00">Block ID: 6</text>
<text text-anchor="middle" x="283" y="-568" font-family="Times,serif" font-size="10.00">Hits: 7</text>
<text text-anchor="middle" x="283" y="-557" font-family="Times,serif" font-size="10.00">Branches: 2/2</text>
</g>
<g id="clust8" class="cluster">
<title>cluster_203849460</title>
<polygon fill="#7ccd7c" stroke="#7ccd7c" points="163,-356 163,-521 289,-521 289,-356 163,-356"/>
<text text-anchor="middle" x="226" y="-374" font-family="Times,serif" font-size="10.00">Block ID: 7</text>
<text text-anchor="middle" x="226" y="-363" font-family="Times,serif" font-size="10.00">Hits: 7</text>
</g>
<g id="clust9" class="cluster">
<title>cluster_1546693040</title>
<polygon fill="#7ccd7c" stroke="#7ccd7c" points="8,-109 8,-337 566,-337 566,-109 8,-109"/>
<text text-anchor="middle" x="287" y="-127" font-family="Times,serif" font-size="10.00">Block ID: 8</text>
<text text-anchor="middle" x="287" y="-116" font-family="Times,serif" font-size="10.00">Hits: 7</text>
</g>
<g id="clust10" class="cluster">
<title>cluster_753853622</title>
<polygon fill="#7ccd7c" stroke="#7ccd7c" points="574,-8 574,-191 1088,-191 1088,-8 574,-8"/>
<text text-anchor="middle" x="831" y="-26" font-family="Times,serif" font-size="10.00">Block ID: 9</text>
<text text-anchor="middle" x="831" y="-15" font-family="Times,serif" font-size="10.00">Hits: 7</text>
</g>
<!-- 1661081225 -->
<g id="node1" class="node">
<title>1661081225</title>
<polygon fill="white" stroke="#7f7f7f" points="280,-1626 116.28,-1608 280,-1590 443.72,-1608 280,-1626"/>
<polyline fill="none" stroke="#7f7f7f" points="128.21,-1609.31 128.21,-1606.69 "/>
<polyline fill="none" stroke="#7f7f7f" points="268.07,-1591.31 291.93,-1591.31 "/>
<polyline fill="none" stroke="#7f7f7f" points="431.79,-1606.69 431.79,-1609.31 "/>
<polyline fill="none" stroke="#7f7f7f" points="291.93,-1624.69 268.07,-1624.69 "/>
<text text-anchor="middle" x="280" y="-1604.3" font-family="Times,serif" font-size="14.00">n := @parameter0: int</text>
</g>
<!-- 1470344997 -->
<g id="node2" class="node">
<title>1470344997</title>
<polygon fill="white" stroke="white" points="344,-1553 216,-1553 216,-1517 344,-1517 344,-1553"/>
<text text-anchor="middle" x="280" y="-1531.3" font-family="Times,serif" font-size="14.00">if $stack2 == 0</text>
</g>
<!-- 1661081225&#45;&gt;1470344997 -->
<g id="edge1" class="edge">
<title>1661081225&#45;&gt;1470344997</title>
<path fill="none" stroke="black" d="M280,-1589.81C280,-1583.27 280,-1575.59 280,-1568.11"/>
<polygon fill="black" stroke="black" points="285.25,-1568.03 280,-1553.03 274.75,-1568.03 285.25,-1568.03"/>
</g>
<!-- 1738674023 -->
<g id="node3" class="node">
<title>1738674023</title>
<polygon fill="white" stroke="white" points="278.5,-1431 159.5,-1431 159.5,-1395 278.5,-1395 278.5,-1431"/>
<text text-anchor="middle" x="219" y="-1409.3" font-family="Times,serif" font-size="14.00">n = n &gt;&gt;&gt; 16</text>
</g>
<!-- 1470344997&#45;&gt;1738674023 -->
<g id="edge2" class="edge">
<title>1470344997:s&#45;&gt;1738674023:n</title>
<path fill="none" stroke="black" d="M280,-1516C280,-1475.63 233.3,-1476.92 221.62,-1446.96"/>
<polygon fill="black" stroke="black" points="226.76,-1445.87 219,-1432 216.42,-1447.68 226.76,-1445.87"/>
<text text-anchor="middle" x="241.5" y="-1452" font-family="Times,serif" font-size="10.00" fill="#666666">false</text>
</g>
<!-- 1139700454 -->
<g id="node4" class="node">
<title>1139700454</title>
<polygon fill="white" stroke="white" points="330,-1247 242,-1247 242,-1211 330,-1211 330,-1247"/>
<text text-anchor="middle" x="286" y="-1225.3" font-family="Times,serif" font-size="14.00">if n &lt; 256</text>
</g>
<!-- 1470344997&#45;&gt;1139700454 -->
<g id="edge3" class="edge">
<title>1470344997:s&#45;&gt;1139700454:n</title>
<path fill="none" stroke="black" d="M280,-1516C280,-1481.43 288.25,-1473.46 291,-1439 297.12,-1362.34 293.33,-1342.9 294,-1266 294,-1265.56 294.1,-1265.43 294,-1265 293.72,-1263.73 293.32,-1262.64 292.87,-1261.68"/>
<polygon fill="black" stroke="black" points="297.42,-1259.05 286,-1248 288.04,-1263.76 297.42,-1259.05"/>
<text text-anchor="middle" x="305" y="-1369" font-family="Times,serif" font-size="10.00" fill="#666666">true</text>
</g>
<!-- 1321530272 -->
<g id="node5" class="node">
<title>1321530272</title>
<polygon fill="white" stroke="white" points="268.5,-1348 191.5,-1348 191.5,-1312 268.5,-1312 268.5,-1348"/>
<text text-anchor="middle" x="230" y="-1326.3" font-family="Times,serif" font-size="14.00">log = 16</text>
</g>
<!-- 1738674023&#45;&gt;1321530272 -->
<g id="edge4" class="edge">
<title>1738674023&#45;&gt;1321530272</title>
<path fill="none" stroke="black" d="M221.33,-1394.82C222.59,-1385.59 224.17,-1373.9 225.65,-1363.05"/>
<polygon fill="black" stroke="black" points="230.85,-1363.72 227.67,-1348.15 220.45,-1362.31 230.85,-1363.72"/>
</g>
<!-- 153245266 -->
<g id="node6" class="node">
<title>153245266</title>
<polygon fill="white" stroke="white" points="284,-1125 174,-1125 174,-1089 284,-1089 284,-1125"/>
<text text-anchor="middle" x="229" y="-1103.3" font-family="Times,serif" font-size="14.00">n = n &gt;&gt;&gt; 8</text>
</g>
<!-- 1139700454&#45;&gt;153245266 -->
<g id="edge6" class="edge">
<title>1139700454:s&#45;&gt;153245266:n</title>
<path fill="none" stroke="black" d="M286,-1210C286,-1170.7 242.75,-1170.36 231.6,-1141.11"/>
<polygon fill="black" stroke="black" points="236.72,-1139.89 229,-1126 226.37,-1141.67 236.72,-1139.89"/>
<text text-anchor="middle" x="250.5" y="-1146" font-family="Times,serif" font-size="10.00" fill="#666666">false</text>
</g>
<!-- 1543148593 -->
<g id="node7" class="node">
<title>1543148593</title>
<polygon fill="white" stroke="white" points="329.5,-941 250.5,-941 250.5,-905 329.5,-905 329.5,-941"/>
<text text-anchor="middle" x="290" y="-919.3" font-family="Times,serif" font-size="14.00">if n &lt; 16</text>
</g>
<!-- 1139700454&#45;&gt;1543148593 -->
<g id="edge7" class="edge">
<title>1139700454:s&#45;&gt;1543148593:n</title>
<path fill="none" stroke="black" d="M286,-1210C286,-1175.49 293.67,-1167.43 296,-1133 301.18,-1056.28 296.78,-1036.89 297,-960 297,-959.56 297.09,-959.44 297,-959 296.78,-957.87 296.48,-956.89 296.13,-956.01"/>
<polygon fill="black" stroke="black" points="300.82,-953.64 290,-942 291.2,-957.85 300.82,-953.64"/>
<text text-anchor="middle" x="309" y="-1063" font-family="Times,serif" font-size="10.00" fill="#666666">true</text>
</g>
<!-- 1321530272&#45;&gt;1139700454 -->
<g id="edge5" class="edge">
<title>1321530272:s&#45;&gt;1139700454:n</title>
<path fill="none" stroke="black" d="M230,-1311C230,-1279.54 269.5,-1282.91 282.15,-1262.61"/>
<polygon fill="black" stroke="black" points="287.25,-1263.84 286,-1248 277.1,-1261.17 287.25,-1263.84"/>
</g>
<!-- 2131670196 -->
<g id="node8" class="node">
<title>2131670196</title>
<polygon fill="white" stroke="white" points="284.5,-1042 173.5,-1042 173.5,-1006 284.5,-1006 284.5,-1042"/>
<text text-anchor="middle" x="229" y="-1020.3" font-family="Times,serif" font-size="14.00">log = log + 8</text>
</g>
<!-- 153245266&#45;&gt;2131670196 -->
<g id="edge8" class="edge">
<title>153245266&#45;&gt;2131670196</title>
<path fill="none" stroke="black" d="M229,-1088.82C229,-1079.69 229,-1068.17 229,-1057.43"/>
<polygon fill="black" stroke="black" points="234.25,-1057.15 229,-1042.15 223.75,-1057.15 234.25,-1057.15"/>
</g>
<!-- 1664439369 -->
<g id="node9" class="node">
<title>1664439369</title>
<polygon fill="white" stroke="white" points="277,-819 167,-819 167,-783 277,-783 277,-819"/>
<text text-anchor="middle" x="222" y="-797.3" font-family="Times,serif" font-size="14.00">n = n &gt;&gt;&gt; 4</text>
</g>
<!-- 1543148593&#45;&gt;1664439369 -->
<g id="edge10" class="edge">
<title>1543148593:s&#45;&gt;1664439369:n</title>
<path fill="none" stroke="black" d="M290,-904C290,-861.78 237.47,-865.99 224.75,-835.02"/>
<polygon fill="black" stroke="black" points="229.87,-833.81 222,-820 219.54,-835.7 229.87,-833.81"/>
<text text-anchor="middle" x="245.5" y="-840" font-family="Times,serif" font-size="10.00" fill="#666666">false</text>
</g>
<!-- 591391158 -->
<g id="node10" class="node">
<title>591391158</title>
<polygon fill="white" stroke="white" points="318,-635 248,-635 248,-599 318,-599 318,-635"/>
<text text-anchor="middle" x="283" y="-613.3" font-family="Times,serif" font-size="14.00">if n &lt; 4</text>
</g>
<!-- 1543148593&#45;&gt;591391158 -->
<g id="edge11" class="edge">
<title>1543148593:s&#45;&gt;591391158:n</title>
<path fill="none" stroke="black" d="M290,-904C290,-792.44 311.65,-762.43 290,-653 289.78,-651.87 289.48,-650.89 289.13,-650.01"/>
<polygon fill="black" stroke="black" points="293.82,-647.64 283,-636 284.2,-651.85 293.82,-647.64"/>
<text text-anchor="middle" x="310" y="-757" font-family="Times,serif" font-size="10.00" fill="#666666">true</text>
</g>
<!-- 2131670196&#45;&gt;1543148593 -->
<g id="edge9" class="edge">
<title>2131670196:s&#45;&gt;1543148593:n</title>
<path fill="none" stroke="black" d="M229,-1005C229,-972.12 272.43,-977.62 286,-956.73"/>
<polygon fill="black" stroke="black" points="291.13,-957.85 290,-942 281,-955.1 291.13,-957.85"/>
</g>
<!-- 210506412 -->
<g id="node11" class="node">
<title>210506412</title>
<polygon fill="white" stroke="white" points="277.5,-736 166.5,-736 166.5,-700 277.5,-700 277.5,-736"/>
<text text-anchor="middle" x="222" y="-714.3" font-family="Times,serif" font-size="14.00">log = log + 4</text>
</g>
<!-- 1664439369&#45;&gt;210506412 -->
<g id="edge12" class="edge">
<title>1664439369&#45;&gt;210506412</title>
<path fill="none" stroke="black" d="M222,-782.82C222,-773.69 222,-762.17 222,-751.43"/>
<polygon fill="black" stroke="black" points="227.25,-751.15 222,-736.15 216.75,-751.15 227.25,-751.15"/>
</g>
<!-- 568221876 -->
<g id="node12" class="node">
<title>568221876</title>
<polygon fill="white" stroke="white" points="281,-513 171,-513 171,-477 281,-477 281,-513"/>
<text text-anchor="middle" x="226" y="-491.3" font-family="Times,serif" font-size="14.00">n = n &gt;&gt;&gt; 2</text>
</g>
<!-- 591391158&#45;&gt;568221876 -->
<g id="edge14" class="edge">
<title>591391158:s&#45;&gt;568221876:n</title>
<path fill="none" stroke="black" d="M283,-598C283,-558.7 239.75,-558.36 228.6,-529.11"/>
<polygon fill="black" stroke="black" points="233.72,-527.89 226,-514 223.37,-529.67 233.72,-527.89"/>
<text text-anchor="middle" x="247.5" y="-534" font-family="Times,serif" font-size="10.00" fill="#666666">false</text>
</g>
<!-- 361571968 -->
<g id="node13" class="node">
<title>361571968</title>
<polygon fill="white" stroke="white" points="433.5,-329 140.5,-329 140.5,-293 433.5,-293 433.5,-329"/>
<text text-anchor="middle" x="287" y="-307.3" font-family="Times,serif" font-size="14.00">$stack3 = new java.lang.StringBuilder</text>
</g>
<!-- 591391158&#45;&gt;361571968 -->
<g id="edge15" class="edge">
<title>591391158:s&#45;&gt;361571968:n</title>
<path fill="none" stroke="black" d="M283,-598C283,-563.49 290.67,-555.43 293,-521 298.18,-444.28 293.78,-424.89 294,-348 294,-347.56 294.09,-347.44 294,-347 293.78,-345.87 293.48,-344.89 293.13,-344.01"/>
<polygon fill="black" stroke="black" points="297.82,-341.64 287,-330 288.2,-345.85 297.82,-341.64"/>
<text text-anchor="middle" x="306" y="-451" font-family="Times,serif" font-size="10.00" fill="#666666">true</text>
</g>
<!-- 210506412&#45;&gt;591391158 -->
<g id="edge13" class="edge">
<title>210506412:s&#45;&gt;591391158:n</title>
<path fill="none" stroke="black" d="M222,-699C222,-666.12 265.43,-671.62 279,-650.73"/>
<polygon fill="black" stroke="black" points="284.13,-651.85 283,-636 274,-649.1 284.13,-651.85"/>
</g>
<!-- 371439501 -->
<g id="node14" class="node">
<title>371439501</title>
<polygon fill="white" stroke="white" points="281.5,-430 170.5,-430 170.5,-394 281.5,-394 281.5,-430"/>
<text text-anchor="middle" x="226" y="-408.3" font-family="Times,serif" font-size="14.00">log = log + 2</text>
</g>
<!-- 568221876&#45;&gt;371439501 -->
<g id="edge16" class="edge">
<title>568221876&#45;&gt;371439501</title>
<path fill="none" stroke="black" d="M226,-476.82C226,-467.69 226,-456.17 226,-445.43"/>
<polygon fill="black" stroke="black" points="231.25,-445.15 226,-430.15 220.75,-445.15 231.25,-445.15"/>
</g>
<!-- 156856360 -->
<g id="node15" class="node">
<title>156856360</title>
<polygon fill="white" stroke="white" points="558,-256 16,-256 16,-220 558,-220 558,-256"/>
<text text-anchor="middle" x="287" y="-234.3" font-family="Times,serif" font-size="14.00">staticinvoke &lt;org.jgrapht.util.Util: void print(java.lang.String)&gt;($stack8)</text>
</g>
<!-- 361571968&#45;&gt;156856360 -->
<g id="edge18" class="edge">
<title>361571968&#45;&gt;156856360</title>
<path fill="none" stroke="black" d="M287,-292.81C287,-286.27 287,-278.59 287,-271.11"/>
<polygon fill="black" stroke="black" points="292.25,-271.03 287,-256.03 281.75,-271.03 292.25,-271.03"/>
</g>
<!-- 371439501&#45;&gt;361571968 -->
<g id="edge17" class="edge">
<title>371439501:s&#45;&gt;361571968:n</title>
<path fill="none" stroke="black" d="M226,-393C226,-360.12 269.43,-365.62 283,-344.73"/>
<polygon fill="black" stroke="black" points="288.13,-345.85 287,-330 278,-343.1 288.13,-345.85"/>
</g>
<!-- 1740797075 -->
<g id="node16" class="node">
<title>1740797075</title>
<polygon fill="white" stroke="#7f7f7f" points="287,-183 166.68,-165 287,-147 407.32,-165 287,-183"/>
<polyline fill="none" stroke="#7f7f7f" points="178.55,-166.78 178.55,-163.22 "/>
<polyline fill="none" stroke="#7f7f7f" points="275.13,-148.78 298.87,-148.78 "/>
<polyline fill="none" stroke="#7f7f7f" points="395.45,-163.22 395.45,-166.78 "/>
<polyline fill="none" stroke="#7f7f7f" points="298.87,-181.22 275.13,-181.22 "/>
<text text-anchor="middle" x="287" y="-161.3" font-family="Times,serif" font-size="14.00">return $stack10</text>
</g>
<!-- 156856360&#45;&gt;1740797075 -->
<g id="edge19" class="edge">
<title>156856360&#45;&gt;1740797075</title>
<path fill="none" stroke="black" d="M287,-219.81C287,-213.27 287,-205.59 287,-198.11"/>
<polygon fill="black" stroke="black" points="292.25,-198.03 287,-183.03 281.75,-198.03 292.25,-198.03"/>
</g>
<!-- 61334373 -->
<g id="node17" class="node">
<title>61334373</title>
<polygon fill="white" stroke="#7f7f7f" points="831,-183 581.82,-165 831,-147 1080.18,-165 831,-183"/>
<polyline fill="none" stroke="#7f7f7f" points="593.79,-165.86 593.79,-164.14 "/>
<polyline fill="none" stroke="#7f7f7f" points="819.03,-147.86 842.97,-147.86 "/>
<polyline fill="none" stroke="#7f7f7f" points="1068.21,-164.14 1068.21,-165.86 "/>
<polyline fill="none" stroke="#7f7f7f" points="842.97,-182.14 819.03,-182.14 "/>
<text text-anchor="middle" x="831" y="-161.3" font-family="Times,serif" font-size="14.00">s := @parameter0: java.lang.String</text>
</g>
<!-- 156856360&#45;&gt;61334373 -->
<g id="edge20" class="edge">
<title>156856360&#45;&gt;61334373</title>
<path fill="none" stroke="black" d="M417.3,-219.99C514.02,-207.37 643.9,-190.42 732.16,-178.9"/>
<polygon fill="black" stroke="black" points="732.85,-184.1 747.04,-176.96 731.49,-173.69 732.85,-184.1"/>
</g>
<!-- 242762528 -->
<g id="node18" class="node">
<title>242762528</title>
<polygon fill="white" stroke="#7f7f7f" points="831,-82 774.02,-64 831,-46 887.98,-64 831,-82"/>
<polyline fill="none" stroke="#7f7f7f" points="785.47,-67.61 785.47,-60.39 "/>
<polyline fill="none" stroke="#7f7f7f" points="819.56,-49.61 842.44,-49.61 "/>
<polyline fill="none" stroke="#7f7f7f" points="876.53,-60.39 876.53,-67.61 "/>
<polyline fill="none" stroke="#7f7f7f" points="842.44,-78.39 819.56,-78.39 "/>
<text text-anchor="middle" x="831" y="-60.3" font-family="Times,serif" font-size="14.00">return</text>
</g>
<!-- 61334373&#45;&gt;242762528 -->
<g id="edge21" class="edge">
<title>61334373&#45;&gt;242762528</title>
<path fill="none" stroke="black" d="M831,-146.76C831,-133.13 831,-113.72 831,-97.24"/>
<polygon fill="black" stroke="black" points="836.25,-97.05 831,-82.05 825.75,-97.05 836.25,-97.05"/>
</g>
</g>
</svg>
